<?xml version="1.0" encoding="utf-8"?>
<!-- Generator: Adobe Illustrator 27.3.1, SVG Export Plug-In . SVG Version: 6.00 Build 0)  -->
<svg version="1.1" id="Layer_1" xmlns="http://www.w3.org/2000/svg" xmlns:xlink="http://www.w3.org/1999/xlink" x="0px" y="0px"
	 viewBox="0 0 1024 1024" style="enable-background:new 0 0 1024 1024;" xml:space="preserve">
<style type="text/css">
	.st0{fill:#D4AF37;}
</style>
<g>
	<path class="st0" d="M398.4,843.8c0,0-37.4-93.3,36.3-154.1s174.1-40.5,174.1-40.5s19.6,80.7-30.4,150.7
		c-50.1,70-149.1,50.7-149.1,50.7s5.6-31.8,34.3-63.8s80.8-63.9,76.4-64.4c-4.1-0.4-51.7,15.4-86,42.2
		C419.7,791.4,398.4,843.8,398.4,843.8z"/>
	<path class="st0" d="M653.7,507.3c74.6-49.6,123.8-134.4,123.8-230.6C777.5,124.2,653.3,0,500.7,0C348.1,0,224,124.2,224,276.8
		c0,96.1,49.2,180.9,123.8,230.5c-42.9,26.9-81.3,64.4-114.2,111.7c-67.1,96.3-104.3,223-104.7,356.7l-0.2,45.8l371.8,2.6l372.3,0
		v-45.9C872.7,768.9,782.7,588.4,653.7,507.3z M500.7,91.9c101.9,0,184.9,82.9,184.9,184.9c0,101.9-82.9,184.9-184.9,184.9
		c-101.9,0-184.9-82.9-184.9-184.9C315.9,174.8,398.8,91.9,500.7,91.9z M500.9,932.1l-278.4-2c7.4-97.8,37.5-188.4,86.4-258.7
		c53-76.1,121.1-117.9,191.8-117.9c71,0,139.3,42.1,192.3,118.7c49,70.7,79,161.7,86.1,259.9H500.9z"/>
</g>
</svg>
