<svg width="30" height="30" viewBox="0 0 30 30" fill="none" xmlns="http://www.w3.org/2000/svg">
<path d="M20 8.75018C20 8.05982 20.5596 7.50018 21.25 7.50018C21.9404 7.50018 22.5 8.05982 22.5 8.75018C22.5 9.44053 21.9404 10.0002 21.25 10.0002C20.5596 10.0002 20 9.44053 20 8.75018Z" fill="white"/>
<path fill-rule="evenodd" clip-rule="evenodd" d="M15 9.06268C11.7208 9.06268 9.0625 11.721 9.0625 15.0002C9.0625 18.2794 11.7208 20.9377 15 20.9377C18.2792 20.9377 20.9375 18.2794 20.9375 15.0002C20.9375 11.721 18.2792 9.06268 15 9.06268ZM10.9375 15.0002C10.9375 12.7565 12.7563 10.9377 15 10.9377C17.2437 10.9377 19.0625 12.7565 19.0625 15.0002C19.0625 17.2438 17.2437 19.0627 15 19.0627C12.7563 19.0627 10.9375 17.2438 10.9375 15.0002Z" fill="white"/>
<path fill-rule="evenodd" clip-rule="evenodd" d="M21.5728 3.54145C17.2396 3.05715 12.7604 3.05715 8.42721 3.54145C5.91214 3.82254 3.88172 5.80381 3.58603 8.33197C3.06786 12.7623 3.06786 17.238 3.58603 21.6684C3.88172 24.1965 5.91214 26.1778 8.42721 26.4589C12.7604 26.9432 17.2396 26.9432 21.5728 26.4589C24.0879 26.1778 26.1183 24.1965 26.414 21.6684C26.9322 17.238 26.9322 12.7623 26.414 8.33197C26.1183 5.80381 24.0879 3.82254 21.5728 3.54145ZM8.63547 5.40485C12.8303 4.93601 17.1697 4.93601 21.3646 5.40485C23.0272 5.59067 24.3591 6.90269 24.5517 8.54978C25.0529 12.8354 25.0529 17.1649 24.5517 21.4506C24.3591 23.0977 23.0272 24.4097 21.3646 24.5955C17.1697 25.0643 12.8303 25.0643 8.63547 24.5955C6.97284 24.4097 5.64098 23.0977 5.44834 21.4506C4.94709 17.1649 4.94709 12.8354 5.44834 8.54978C5.64098 6.90269 6.97284 5.59067 8.63547 5.40485Z" fill="white"/>
</svg>
