<svg width="98" height="38" viewBox="0 0 98 38" fill="none" xmlns="http://www.w3.org/2000/svg">
<path d="M37.2416 19.3659C35.677 18.3323 34.6921 18.1621 34.6921 18.1621H17.3562L0 18.3161L0.0202664 20.5738C0.105385 29.8356 7.88364 37.3706 17.3562 37.3706C21.9485 37.3706 26.2896 35.6074 29.5728 32.4053C29.8808 32.1054 30.1808 31.7933 30.4604 31.4731C30.4604 31.4731 31.5629 31.8176 34.0354 31.5542C36.5079 31.2907 39.0534 29.7504 39.7911 26.6862C40.622 23.2247 38.8102 20.3995 37.2416 19.3659ZM17.3562 32.8553C11.1425 32.8553 5.91779 28.5101 4.76666 22.7869L17.3643 22.6734H29.97C28.8715 28.4615 23.6347 32.8553 17.3562 32.8553ZM36.5768 25.912C36.1107 27.7643 34.9798 28.0927 32.783 28.4453C32.783 28.4453 33.6017 26.7997 34.0557 25.2999C34.5097 23.8002 34.6394 22.3937 34.6394 22.3937C36.1472 23.3827 37.0389 24.0596 36.5768 25.912Z" fill="#D4AF37"/>
<path d="M11.2762 15.4911C11.2762 15.4911 8.46727 8.48294 14.0041 3.91489C19.5408 -0.653158 27.084 0.87493 27.084 0.87493C27.084 0.87493 28.5594 6.93864 24.798 12.1958C21.0365 17.4529 13.5987 16.0018 13.5987 16.0018C13.5987 16.0018 14.0162 13.6103 16.1766 11.2108C18.337 8.81126 22.2444 6.40766 21.9201 6.37524C21.6121 6.34686 18.0371 7.53042 15.4592 9.5449C12.8813 11.5594 11.2762 15.4911 11.2762 15.4911Z" fill="#D4AF37"/>
<path d="M47.294 10.2394V9.06939H49.328C49.7 9.06939 50.024 9.00939 50.3 8.88939C50.576 8.76939 50.786 8.59539 50.93 8.36739C51.086 8.13939 51.164 7.86939 51.164 7.55739C51.164 7.07739 50.996 6.71139 50.66 6.45939C50.336 6.20739 49.892 6.08139 49.328 6.08139H47.942V14.5774H49.598C50.03 14.5774 50.42 14.5174 50.768 14.3974C51.116 14.2654 51.386 14.0614 51.578 13.7854C51.782 13.5094 51.884 13.1554 51.884 12.7234C51.884 12.4114 51.824 12.1474 51.704 11.9314C51.596 11.7034 51.434 11.5174 51.218 11.3734C51.014 11.2174 50.774 11.1094 50.498 11.0494C50.222 10.9774 49.922 10.9414 49.598 10.9414H47.294V9.53739H49.832C50.444 9.53739 51.026 9.60339 51.578 9.73539C52.142 9.86739 52.646 10.0774 53.09 10.3654C53.534 10.6414 53.882 11.0014 54.134 11.4454C54.398 11.8894 54.53 12.4234 54.53 13.0474C54.53 13.8754 54.332 14.5534 53.936 15.0814C53.552 15.6094 53.006 15.9994 52.298 16.2514C51.59 16.5034 50.768 16.6294 49.832 16.6294H45.368V4.02939H49.562C50.402 4.02939 51.14 4.14939 51.776 4.38939C52.412 4.61739 52.91 4.96539 53.27 5.43339C53.63 5.90139 53.81 6.49539 53.81 7.21539C53.81 7.85139 53.63 8.39739 53.27 8.85339C52.91 9.30939 52.412 9.65739 51.776 9.89739C51.14 10.1254 50.402 10.2394 49.562 10.2394H47.294ZM58.7935 20.5894H56.4535V8.34939H58.7935V20.5894ZM65.5975 12.4894C65.5975 13.4254 65.4115 14.2234 65.0395 14.8834C64.6675 15.5434 64.1755 16.0414 63.5635 16.3774C62.9635 16.7134 62.3155 16.8814 61.6195 16.8814C60.9115 16.8814 60.2935 16.7014 59.7655 16.3414C59.2495 15.9814 58.8475 15.4714 58.5595 14.8114C58.2835 14.1514 58.1455 13.3774 58.1455 12.4894C58.1455 11.5894 58.2835 10.8154 58.5595 10.1674C58.8475 9.50739 59.2495 8.99739 59.7655 8.63739C60.2935 8.27739 60.9115 8.09739 61.6195 8.09739C62.3155 8.09739 62.9635 8.26539 63.5635 8.60139C64.1755 8.93739 64.6675 9.43539 65.0395 10.0954C65.4115 10.7434 65.5975 11.5414 65.5975 12.4894ZM63.1855 12.4894C63.1855 11.9974 63.0835 11.5774 62.8795 11.2294C62.6755 10.8814 62.3995 10.6174 62.0515 10.4374C61.7155 10.2574 61.3435 10.1674 60.9355 10.1674C60.5875 10.1674 60.2455 10.2574 59.9095 10.4374C59.5855 10.6054 59.3155 10.8634 59.0995 11.2114C58.8955 11.5594 58.7935 11.9854 58.7935 12.4894C58.7935 12.9934 58.8955 13.4194 59.0995 13.7674C59.3155 14.1154 59.5855 14.3794 59.9095 14.5594C60.2455 14.7274 60.5875 14.8114 60.9355 14.8114C61.3435 14.8114 61.7155 14.7214 62.0515 14.5414C62.3995 14.3614 62.6755 14.0974 62.8795 13.7494C63.0835 13.4014 63.1855 12.9814 63.1855 12.4894ZM68.1096 13.0114V11.5714H73.0596C73.0116 11.2114 72.9156 10.8994 72.7716 10.6354C72.6276 10.3714 72.4296 10.1674 72.1776 10.0234C71.9256 9.87939 71.6076 9.80739 71.2236 9.80739C70.8276 9.80739 70.4736 9.89739 70.1616 10.0774C69.8496 10.2454 69.6036 10.4974 69.4236 10.8334C69.2436 11.1694 69.1536 11.5654 69.1536 12.0214L69.1176 12.4894C69.1176 13.0774 69.2076 13.5634 69.3876 13.9474C69.5796 14.3194 69.8376 14.5954 70.1616 14.7754C70.4856 14.9434 70.8516 15.0274 71.2596 15.0274C71.6196 15.0274 71.9376 14.9794 72.2136 14.8834C72.4896 14.7874 72.7356 14.6494 72.9516 14.4694C73.1676 14.2894 73.3476 14.0794 73.4916 13.8394L75.5256 14.4694C75.2496 14.9374 74.9256 15.3514 74.5536 15.7114C74.1816 16.0594 73.7256 16.3294 73.1856 16.5214C72.6576 16.7134 72.0096 16.8094 71.2416 16.8094C70.3176 16.8094 69.5196 16.6234 68.8476 16.2514C68.1756 15.8794 67.6596 15.3694 67.2996 14.7214C66.9516 14.0614 66.7776 13.3174 66.7776 12.4894C66.7776 12.3334 66.7836 12.1834 66.7956 12.0394C66.8076 11.8954 66.8256 11.7514 66.8496 11.6074C66.9696 10.9234 67.2156 10.3234 67.5876 9.80739C67.9596 9.29139 68.4576 8.88939 69.0816 8.60139C69.7056 8.31339 70.4316 8.16939 71.2596 8.16939C72.1716 8.16939 72.9456 8.34339 73.5816 8.69139C74.2296 9.02739 74.7216 9.50739 75.0576 10.1314C75.3936 10.7554 75.5616 11.5054 75.5616 12.3814C75.5616 12.4534 75.5616 12.5434 75.5616 12.6514C75.5616 12.7594 75.5496 12.8794 75.5256 13.0114H68.1096ZM85.2571 16.6294L84.0691 10.6714L85.2571 7.71939L87.6511 16.6294H85.2571ZM81.4051 14.6134L85.2571 7.71939L85.4371 11.1394L81.9451 17.1874L81.4051 14.6134ZM81.9451 17.1874L78.5071 11.1394L78.6871 7.71939L82.4851 14.6134L81.9451 17.1874ZM76.2931 16.6294L78.6871 7.71939L79.8751 10.6714L78.6871 16.6294H76.2931ZM90.9744 16.6294H88.5264L91.2084 12.6874H93.4944L90.9744 16.6294ZM96.4104 16.6294H94.0884V8.34939H96.4104V16.6294ZM94.9164 11.8954V13.5514H92.3424C91.7784 13.5514 91.2444 13.4614 90.7404 13.2814C90.2364 13.0894 89.8344 12.8014 89.5344 12.4174C89.2344 12.0214 89.0844 11.5174 89.0844 10.9054C89.0844 10.2814 89.2344 9.78339 89.5344 9.41139C89.8344 9.03939 90.2364 8.76939 90.7404 8.60139C91.2444 8.43339 91.7784 8.34939 92.3424 8.34939H94.9164V10.2214H92.6124C92.3364 10.2214 92.1084 10.2514 91.9284 10.3114C91.7484 10.3714 91.6104 10.4614 91.5144 10.5814C91.4184 10.7014 91.3704 10.8634 91.3704 11.0674C91.3704 11.2594 91.4184 11.4214 91.5144 11.5534C91.6104 11.6734 91.7484 11.7634 91.9284 11.8234C92.1084 11.8714 92.3364 11.8954 92.6124 11.8954H94.9164ZM49.454 30.3274L50.066 28.0414H53.36V30.3274H49.454ZM52.262 22.0294H54.908V34.6294H52.262V22.0294ZM47.924 22.0294V25.6474C47.924 26.1394 48.008 26.5654 48.176 26.9254C48.356 27.2854 48.608 27.5614 48.932 27.7534C49.256 27.9454 49.634 28.0414 50.066 28.0414L49.454 30.3274C48.578 30.3274 47.834 30.1294 47.222 29.7334C46.61 29.3374 46.148 28.8034 45.836 28.1314C45.524 27.4594 45.368 26.7214 45.368 25.9174V22.0294H47.924ZM59.1478 32.1634C59.1478 32.3914 59.2078 32.5834 59.3278 32.7394C59.4478 32.8834 59.6098 32.9974 59.8138 33.0814C60.0298 33.1534 60.2638 33.1894 60.5158 33.1894C60.8878 33.1894 61.2298 33.1294 61.5418 33.0094C61.8538 32.8894 62.0998 32.6914 62.2798 32.4154C62.4598 32.1394 62.5498 31.7734 62.5498 31.3174L62.8378 32.2894C62.8378 32.8174 62.6998 33.2734 62.4238 33.6574C62.1478 34.0294 61.7758 34.3174 61.3078 34.5214C60.8518 34.7134 60.3358 34.8094 59.7598 34.8094C59.1958 34.8094 58.6918 34.7134 58.2478 34.5214C57.8038 34.3294 57.4498 34.0474 57.1858 33.6754C56.9338 33.2914 56.8078 32.8234 56.8078 32.2714C56.8078 31.7074 56.9518 31.2274 57.2398 30.8314C57.5398 30.4234 57.9538 30.1114 58.4818 29.8954C59.0218 29.6794 59.6518 29.5714 60.3718 29.5714C60.8158 29.5714 61.2298 29.6254 61.6138 29.7334C61.9978 29.8414 62.3218 29.9674 62.5858 30.1114C62.8498 30.2554 63.0358 30.3934 63.1438 30.5254V31.6594C62.8078 31.4074 62.4598 31.2214 62.0998 31.1014C61.7398 30.9814 61.3138 30.9214 60.8218 30.9214C60.4618 30.9214 60.1558 30.9754 59.9038 31.0834C59.6518 31.1914 59.4598 31.3354 59.3278 31.5154C59.2078 31.6954 59.1478 31.9114 59.1478 32.1634ZM58.4098 28.7074L57.5638 27.1054C57.9838 26.8774 58.4998 26.6614 59.1118 26.4574C59.7238 26.2414 60.4018 26.1334 61.1458 26.1334C61.8658 26.1334 62.4958 26.2354 63.0358 26.4394C63.5878 26.6434 64.0198 26.9434 64.3318 27.3394C64.6438 27.7234 64.7998 28.1974 64.7998 28.7614V34.6294H62.5498V29.1394C62.5498 28.7674 62.4058 28.4794 62.1178 28.2754C61.8298 28.0594 61.4578 27.9514 61.0018 27.9514C60.6058 27.9514 60.2338 27.9994 59.8858 28.0954C59.5498 28.1794 59.2498 28.2814 58.9858 28.4014C58.7338 28.5214 58.5418 28.6234 58.4098 28.7074ZM69.0545 34.6294H66.6065L69.2885 30.6874H71.5745L69.0545 34.6294ZM74.4905 34.6294H72.1685V26.3494H74.4905V34.6294ZM72.9965 29.8954V31.5514H70.4225C69.8585 31.5514 69.3245 31.4614 68.8205 31.2814C68.3165 31.0894 67.9145 30.8014 67.6145 30.4174C67.3145 30.0214 67.1645 29.5174 67.1645 28.9054C67.1645 28.2814 67.3145 27.7834 67.6145 27.4114C67.9145 27.0394 68.3165 26.7694 68.8205 26.6014C69.3245 26.4334 69.8585 26.3494 70.4225 26.3494H72.9965V28.2214H70.6925C70.4165 28.2214 70.1885 28.2514 70.0085 28.3114C69.8285 28.3714 69.6905 28.4614 69.5945 28.5814C69.4985 28.7014 69.4505 28.8634 69.4505 29.0674C69.4505 29.2594 69.4985 29.4214 69.5945 29.5534C69.6905 29.6734 69.8285 29.7634 70.0085 29.8234C70.1885 29.8714 70.4165 29.8954 70.6925 29.8954H72.9965Z" fill="#D4AF37"/>
</svg>
