<svg width="30" height="30" viewBox="0 0 30 30" fill="none" xmlns="http://www.w3.org/2000/svg">
<path fill-rule="evenodd" clip-rule="evenodd" d="M15 2.8125C8.26903 2.8125 2.8125 8.26903 2.8125 15C2.8125 21.731 8.26903 27.1875 15 27.1875C21.731 27.1875 27.1875 21.731 27.1875 15C27.1875 8.26903 21.731 2.8125 15 2.8125ZM4.6875 15C4.6875 9.30456 9.30456 4.6875 15 4.6875C20.6954 4.6875 25.3125 9.30456 25.3125 15C25.3125 20.6954 20.6954 25.3125 15 25.3125C13.9284 25.3125 12.895 25.1491 11.9233 24.8457C12.4516 24.0162 12.8717 23.1225 13.1734 22.1863L13.8191 19.7149C14.0859 20.0956 14.4435 20.4036 14.8596 20.611C15.2756 20.8184 15.7369 20.9185 16.2015 20.9024C19.3706 20.9024 21.5972 18.0227 21.5972 14.4453C21.5972 11.009 18.7917 8.44102 15.1921 8.44102C10.7093 8.44102 8.3269 11.4543 8.3269 14.7274C8.3269 16.2563 9.13588 18.1488 10.4347 18.7574C10.6277 18.8465 10.7539 18.7574 10.7835 18.6164C10.8132 18.4755 10.9911 17.7637 11.0729 17.4369C11.0857 17.3851 11.0857 17.3304 11.0728 17.2787C11.0599 17.2269 11.0345 17.1791 10.9988 17.1395C10.5081 16.4482 10.2483 15.6196 10.2566 14.7719C10.254 14.1634 10.3749 13.5607 10.6121 13.0003C10.8492 12.4399 11.1975 11.9335 11.636 11.5116C12.0745 11.0898 12.5941 10.7613 13.1632 10.546C13.7324 10.3308 14.3393 10.2333 14.9472 10.2594C15.5166 10.2261 16.0867 10.3118 16.6212 10.5111C17.1556 10.7105 17.6426 11.019 18.0511 11.4171C18.4596 11.8151 18.7807 12.2939 18.9939 12.823C19.207 13.3521 19.3075 13.9198 19.289 14.4899C19.289 17.2953 17.864 19.2473 16.0234 19.2473C15.7856 19.2655 15.5469 19.2262 15.3275 19.1327C15.1082 19.0392 14.9146 18.8941 14.7631 18.7099C14.6117 18.5257 14.5068 18.3077 14.4575 18.0744C14.4081 17.8411 14.4157 17.5993 14.4796 17.3695C14.5851 16.9318 14.7243 16.4809 14.86 16.0415C15.1061 15.2444 15.3406 14.4851 15.3406 13.9109C15.3663 13.7245 15.3513 13.5346 15.2968 13.3544C15.2423 13.1742 15.1495 13.008 15.0247 12.867C14.9 12.726 14.7462 12.6137 14.574 12.5376C14.4018 12.4616 14.2151 12.4237 14.0269 12.4266C12.9878 12.4266 12.1492 13.5102 12.1492 14.95C12.1414 15.4588 12.2374 15.9639 12.4312 16.4344L11.2066 21.6297C11.0566 22.6114 11.0562 23.6102 11.2056 24.592C10.3924 24.2701 9.62989 23.8477 8.93339 23.3402C7.71202 22.448 6.69146 21.2934 5.95365 19.9492C5.66339 19.4203 5.4214 18.8703 5.22874 18.3057C4.87778 17.268 4.6875 16.1562 4.6875 15Z" fill="white"/>
</svg>
