<?xml version="1.0" encoding="utf-8"?>
<!-- Generator: Adobe Illustrator 27.3.1, SVG Export Plug-In . SVG Version: 6.00 Build 0)  -->
<svg version="1.1" id="Layer_1" xmlns="http://www.w3.org/2000/svg" xmlns:xlink="http://www.w3.org/1999/xlink" x="0px" y="0px"
	 viewBox="0 0 50 50" style="enable-background:new 0 0 50 50;" xml:space="preserve">
<style type="text/css">
	.st0{fill:#D4AF37;}
</style>
<path class="st0" d="M38.7,29.9c2.5-2.5,3.9-5.9,3.9-9.5s-1.4-6.9-3.9-9.5S32.8,7,29.2,7s-6.9,1.4-9.5,3.9s-3.9,5.9-3.9,9.5
	c0,2.9,0.9,5.7,2.7,8L7.4,39.6l2.7,2.7l11.1-11.1c2.3,1.7,5.1,2.7,8,2.7C32.8,33.8,36.2,32.4,38.7,29.9z M22.5,27.2
	c-3.7-3.7-3.7-9.8,0-13.5s9.8-3.7,13.5,0c3.7,3.7,3.7,9.8,0,13.5C32.3,30.9,26.2,30.9,22.5,27.2z"/>
</svg>
