<?xml version="1.0" encoding="utf-8"?>
<!-- Generator: Adobe Illustrator 27.3.1, SVG Export Plug-In . SVG Version: 6.00 Build 0)  -->
<svg version="1.1" id="Layer_1" xmlns="http://www.w3.org/2000/svg" xmlns:xlink="http://www.w3.org/1999/xlink" x="0px" y="0px"
	 viewBox="0 0 50 50" style="enable-background:new 0 0 50 50;" xml:space="preserve">
<style type="text/css">
	.st0{fill:#D4AF37;}
</style>
<g>
	<path class="st0" d="M36.9,44.6c-2,0-3.6-1.6-3.6-3.6c0-2,1.6-3.6,3.6-3.6c2,0,3.6,1.6,3.6,3.6C40.5,42.9,38.9,44.6,36.9,44.6z
		 M36.9,40.6c-0.2,0-0.4,0.2-0.4,0.4c0,0.2,0.2,0.4,0.4,0.4c0.2,0,0.4-0.2,0.4-0.4C37.3,40.7,37.2,40.6,36.9,40.6z M15,44.6
		c-2,0-3.6-1.6-3.6-3.6c0-2,1.6-3.6,3.6-3.6s3.6,1.6,3.6,3.6C18.6,42.9,17,44.6,15,44.6z M15,40.6c-0.2,0-0.4,0.2-0.4,0.4
		c0,0.2,0.2,0.4,0.4,0.4s0.4-0.2,0.4-0.4C15.4,40.7,15.2,40.6,15,40.6z M40.5,34.6H13.7l-3.4-22h0v-0.2L9.7,8.6H3.4V5.4h9l0.6,4h30
		l-4.9,17.2H15.7l0.7,4.8h24.1L40.5,34.6L40.5,34.6z M15.2,23.4h20.6l3.1-10.8H13.5L15.2,23.4z"/>
</g>
</svg>
