<?xml version="1.0" encoding="utf-8"?>
<!-- Generator: Adobe Illustrator 27.3.1, SVG Export Plug-In . SVG Version: 6.00 Build 0)  -->
<svg version="1.1" id="Layer_1" xmlns="http://www.w3.org/2000/svg" xmlns:xlink="http://www.w3.org/1999/xlink" x="0px" y="0px"
	 viewBox="0 0 1024 1024" style="enable-background:new 0 0 1024 1024;" xml:space="preserve">
<style type="text/css">
	.st0{fill:#D4AF37;}
</style>
<g id="Shopicon">
	<path class="st0" d="M302.4,343.3l-36.5-85.7l-65.4,27.3c68.8-102,186.2-166.5,312.8-166.5c207.3,0,375.9,166.9,375.9,372.1h94
		c0-256.5-210.8-465.2-469.9-465.2c-164,0-315.3,86.6-399.8,221.9l-23.2-67.9l-89,29.8L79,436.5L302.4,343.3z"/>
	<path class="st0" d="M724.2,637.7l36.5,85.7l65.4-27.3c-68.8,102-186.2,166.5-312.8,166.5c-207.3,0-375.9-166.9-375.9-372.1h-94
		c0,256.5,210.8,465.2,469.9,465.2c164,0,315.3-86.6,399.8-221.9l23.2,67.9l89-29.8l-77.7-227.3L724.2,637.7z"/>
</g>
<path class="st0" d="M314.8,673.3c0,0-72.5-180.9,70.4-298.8c142.9-117.9,337.6-78.5,337.6-78.5s38.1,156.5-59,292.2
	c-97.1,135.7-289.1,98.2-289.1,98.2s10.8-61.7,66.5-123.7c55.8-61.9,156.6-124,148.3-124.8c-8-0.7-100.2,29.8-166.8,81.8
	C356.2,571.9,314.8,673.3,314.8,673.3z"/>
</svg>
