<?xml version="1.0" encoding="utf-8"?>
<!-- Generator: Adobe Illustrator 27.3.1, SVG Export Plug-In . SVG Version: 6.00 Build 0)  -->
<svg version="1.1" id="Layer_1" xmlns="http://www.w3.org/2000/svg" xmlns:xlink="http://www.w3.org/1999/xlink" x="0px" y="0px"
	 viewBox="0 0 1024 1024" style="enable-background:new 0 0 1024 1024;" xml:space="preserve">
<style type="text/css">
	.st0{fill:#D4AF37;}
</style>
<g>
	<path class="st0" d="M943.2,493.7c-39.2-25.9-63.8-30.1-63.8-30.1H445.2l-434.6,3.9l0.5,56.5C13.2,755.9,208,944.6,445.2,944.6
		c115,0,223.7-44.2,305.9-124.3c7.7-7.5,15.2-15.3,22.2-23.3c0,0,27.6,8.6,89.5,2c61.9-6.6,125.7-45.2,144.1-121.9
		C1027.8,590.3,982.4,519.6,943.2,493.7z M445.2,831.5c-155.6,0-286.4-108.8-315.3-252.1l315.5-2.8h315.7
		C733.6,721.5,602.4,831.5,445.2,831.5z M926.5,657.6c-11.7,46.4-40,54.6-95,63.4c0,0,20.5-41.2,31.9-78.8
		c11.4-37.6,14.6-72.8,14.6-72.8C915.8,594.3,938.1,611.3,926.5,657.6z"/>
</g>
<g>
	<path class="st0" d="M437.1,437.7c-0.4,0-0.8,0-1.1,0c-13.4-0.3-26.1-6.2-35-16.2L258.3,261.2l72.3-64.4l108.1,121.5L695.2,55.8
		l69.3,67.7L471.7,423.1C462.6,432.5,450.1,437.7,437.1,437.7z"/>
</g>
</svg>
