<svg width="50" height="50" viewBox="0 0 50 50" fill="none" xmlns="http://www.w3.org/2000/svg">
<path d="M46.5039 24.79C44.6191 23.5449 43.4326 23.3398 43.4326 23.3398H22.5488L1.64062 23.5254L1.66504 26.2451C1.76758 37.4023 11.1377 46.4795 22.5488 46.4795C28.0811 46.4795 33.3105 44.3555 37.2656 40.498C37.6367 40.1367 37.998 39.7607 38.335 39.375C38.335 39.375 39.6631 39.79 42.6416 39.4727C45.6201 39.1553 48.6865 37.2998 49.5752 33.6084C50.5762 29.4385 48.3936 26.0352 46.5039 24.79ZM22.5488 41.04C15.0635 41.04 8.76953 35.8057 7.38281 28.9111L22.5586 28.7744H37.7441C36.4209 35.7471 30.1123 41.04 22.5488 41.04ZM45.7031 32.6758C45.1416 34.9072 43.7793 35.3027 41.1328 35.7275C41.1328 35.7275 42.1191 33.7451 42.666 31.9385C43.2129 30.1318 43.3691 28.4375 43.3691 28.4375C45.1855 29.6289 46.2598 30.4443 45.7031 32.6758Z" fill="#D4AF37"/>
<path d="M15.2246 20.1221C15.2246 20.1221 11.8408 11.6797 18.5108 6.17677C25.1807 0.673837 34.2676 2.51466 34.2676 2.51466C34.2676 2.51466 36.0449 9.81934 31.5137 16.1524C26.9824 22.4854 18.0225 20.7373 18.0225 20.7373C18.0225 20.7373 18.5254 17.8565 21.1279 14.9658C23.7305 12.0752 28.4375 9.1797 28.0469 9.14063C27.6758 9.10645 23.3692 10.5322 20.2637 12.959C17.1582 15.3857 15.2246 20.1221 15.2246 20.1221Z" fill="#D4AF37"/>
</svg>
