<?xml version="1.0" encoding="utf-8"?>
<!-- Generator: Adobe Illustrator 27.3.1, SVG Export Plug-In . SVG Version: 6.00 Build 0)  -->
<svg version="1.1" id="Layer_1" xmlns="http://www.w3.org/2000/svg" xmlns:xlink="http://www.w3.org/1999/xlink" x="0px" y="0px"
	 viewBox="0 0 50 50" style="enable-background:new 0 0 50 50;" xml:space="preserve">
<style type="text/css">
	.st0{fill:#D4AF37;}
</style>
<g>
	<path class="st0" d="M31.9,24.4c3.2-2.1,5.3-5.8,5.3-9.9c0-6.5-5.3-11.8-11.8-11.8S13.5,8,13.5,14.5c0,4.1,2.1,7.7,5.3,9.9
		c-1.8,1.2-3.5,2.8-4.9,4.8c-2.9,4.1-4.5,9.5-4.5,15.3l0,2l15.9,0.1h15.9v-2C41.3,35.6,37.4,27.8,31.9,24.4z M25.4,6.6
		c4.4,0,7.9,3.5,7.9,7.9c0,4.4-3.5,7.9-7.9,7.9c-4.4,0-7.9-3.5-7.9-7.9C17.4,10.1,21,6.6,25.4,6.6z M25.4,42.5l-11.9-0.1
		c0.3-4.2,1.6-8.1,3.7-11.1c2.3-3.3,5.2-5,8.2-5c3,0,6,1.8,8.2,5.1c2.1,3,3.4,6.9,3.7,11.1H25.4z"/>
</g>
</svg>
