<svg width="108" height="19" viewBox="0 0 108 19" fill="none" xmlns="http://www.w3.org/2000/svg">
<path d="M10 0L13.0656 5.28057L19.035 6.56434L14.9602 11.1117L15.584 17.1857L10 14.7155L4.41604 17.1857L5.03976 11.1117L0.964963 6.56434L6.93441 5.28057L10 0Z" fill="#D4AF37"/>
<path d="M32 0L35.0656 5.28057L41.035 6.56434L36.9602 11.1117L37.584 17.1857L32 14.7155L26.416 17.1857L27.0398 11.1117L22.965 6.56434L28.9344 5.28057L32 0Z" fill="#D4AF37"/>
<path d="M54 0L57.0656 5.28057L63.035 6.56434L58.9602 11.1117L59.584 17.1857L54 14.7155L48.416 17.1857L49.0398 11.1117L44.965 6.56434L50.9344 5.28057L54 0Z" fill="#D4AF37"/>
<path d="M76 0L79.0656 5.28057L85.035 6.56434L80.9602 11.1117L81.584 17.1857L76 14.7155L70.416 17.1857L71.0398 11.1117L66.965 6.56434L72.9344 5.28057L76 0Z" fill="#D4AF37"/>
<path d="M98 0L101.066 5.28057L107.035 6.56434L102.96 11.1117L103.584 17.1857L98 14.7155L92.416 17.1857L93.0398 11.1117L88.965 6.56434L94.9344 5.28057L98 0Z" fill="#D4AF37"/>
</svg>
