<svg width="30" height="30" viewBox="0 0 30 30" fill="none" xmlns="http://www.w3.org/2000/svg">
<path fill-rule="evenodd" clip-rule="evenodd" d="M7.2345 17.5245C7.28921 17.5429 7.34444 17.556 7.39962 17.5641C7.45978 17.7054 7.53753 17.8884 7.62823 18.1023C7.84957 18.6243 8.14781 19.3303 8.45565 20.0669C9.08346 21.569 9.71673 23.1174 9.85659 23.5606C10.0297 24.1085 10.2127 24.481 10.4125 24.7353C10.5158 24.8668 10.6353 24.9817 10.7751 25.0686C10.8455 25.1124 10.9198 25.1483 10.9974 25.175C11.0008 25.1762 11.0043 25.1774 11.0077 25.1785C11.4077 25.3295 11.7724 25.2666 12.0007 25.1897C12.1229 25.1485 12.2218 25.0988 12.2918 25.0586C12.3275 25.038 12.3577 25.0189 12.3818 25.0027L12.3875 24.9988L15.9203 22.7957L20.0009 25.9242C20.0611 25.9704 20.1268 26.0091 20.1963 26.0395C20.6866 26.2534 21.1613 26.328 21.6079 26.267C22.0536 26.2061 22.4076 26.0188 22.6711 25.808C22.9291 25.6016 23.104 25.3704 23.213 25.1986C23.2686 25.1109 23.3104 25.0333 23.3398 24.9739C23.3546 24.944 23.3665 24.9183 23.3757 24.8976L23.3875 24.8703L23.3919 24.8596L23.3938 24.8551L23.3946 24.853L23.3954 24.851C23.4169 24.7974 23.4333 24.7419 23.4445 24.6853L27.1698 5.90342C27.1817 5.84336 27.1877 5.78227 27.1877 5.72103C27.1877 5.17101 26.9805 4.64801 26.4932 4.33064C26.0767 4.0594 25.6127 4.04772 25.3195 4.06998C25.0032 4.09399 24.7111 4.17207 24.5151 4.23447C24.413 4.26694 24.3275 4.29827 24.2658 4.32217C24.2348 4.33418 24.2094 4.34449 24.1905 4.35235L24.1763 4.35833L3.28414 12.554L3.28144 12.555C3.26812 12.5598 3.25103 12.5662 3.23071 12.5741C3.19026 12.5899 3.13606 12.6121 3.07274 12.6408C2.94926 12.6967 2.77603 12.7842 2.59828 12.9059C2.31429 13.1004 1.66118 13.633 1.77115 14.5121C1.85889 15.2135 2.33937 15.6442 2.6321 15.8513C2.79284 15.9651 2.94555 16.0464 3.05676 16.0994C3.10836 16.1239 3.21548 16.1674 3.26195 16.1863L3.27368 16.1911L7.2345 17.5245ZM24.9074 6.08483L24.9045 6.0861C24.8941 6.09062 24.8837 6.09495 24.8731 6.0991L3.95558 14.3047C3.94466 14.309 3.93365 14.3131 3.92258 14.317L3.91094 14.3214C3.89755 14.3266 3.87502 14.3357 3.84675 14.3485C3.83071 14.3558 3.81398 14.3637 3.79692 14.3723C3.82036 14.3855 3.84279 14.3969 3.86272 14.4064C3.88186 14.4155 3.89646 14.4218 3.90445 14.425L7.83274 15.7475C7.90464 15.7717 7.97167 15.8038 8.03319 15.8425L21.0042 8.24935L21.0163 8.24217C21.0258 8.23659 21.0381 8.22941 21.053 8.221C21.0826 8.20431 21.1231 8.1821 21.1714 8.15754C21.2614 8.11173 21.4054 8.04371 21.5677 7.99356C21.6806 7.95865 22.0137 7.86029 22.3738 7.97579C22.5961 8.04708 22.8262 8.20035 22.9759 8.45998C23.0503 8.58896 23.0899 8.71854 23.1091 8.83715C23.16 9.024 23.152 9.20851 23.1121 9.3678C23.0261 9.71093 22.7851 9.97859 22.5657 10.1833C22.3778 10.3588 19.946 12.7036 17.5471 15.0184C16.3508 16.1727 15.1666 17.3156 14.2816 18.1699L13.7003 18.7311L21.0402 24.3584C21.2085 24.4187 21.308 24.4156 21.3541 24.4093C21.409 24.4018 21.4538 24.3807 21.4997 24.344C21.551 24.3029 21.5959 24.2476 21.6294 24.1947L21.6307 24.1925L25.2438 5.97627C25.1902 5.98916 25.136 6.00451 25.0837 6.02114C25.0246 6.03998 24.9758 6.05792 24.9434 6.07046C24.9274 6.07667 24.9158 6.08138 24.9096 6.08398L24.9074 6.08483ZM14.3309 21.5772L12.8665 20.4545L12.5117 22.7117L14.3309 21.5772ZM11.5231 18.2268L12.9794 16.8209C13.8645 15.9665 15.0487 14.8235 16.2451 13.6691L17.4608 12.4963L9.31073 17.2672L9.35447 17.3703C9.57659 17.8942 9.87616 18.6034 10.1856 19.3439C10.417 19.8976 10.659 20.4806 10.8794 21.0203L11.2332 18.7698C11.2673 18.5528 11.3733 18.365 11.5231 18.2268Z" fill="white"/>
</svg>
