<?xml version="1.0" encoding="utf-8"?>
<!-- Generator: Adobe Illustrator 27.3.1, SVG Export Plug-In . SVG Version: 6.00 Build 0)  -->
<svg version="1.1" id="Layer_1" xmlns="http://www.w3.org/2000/svg" xmlns:xlink="http://www.w3.org/1999/xlink" x="0px" y="0px"
	 viewBox="0 0 1024 1024" style="enable-background:new 0 0 1024 1024;" xml:space="preserve">
<style type="text/css">
	.st0{fill:#D4AF37;}
</style>
<g>
	<path class="st0" d="M506.9,985.5c-64.5,0-127-12.6-185.9-37.6c-56.9-24-107.9-58.4-151.8-102.4c-43.8-43.8-78.3-95-102.4-151.8
		C41.9,634.9,29.3,572.3,29.3,508c0-64.5,12.6-127,37.6-185.9c24-56.9,58.4-107.9,102.4-151.8c43.8-43.8,95-78.3,151.8-102.4
		C379.9,43,442.5,30.4,506.9,30.4S633.8,43,692.7,68c56.9,24,107.9,58.4,151.8,102.4c43.8,43.8,78.3,95,102.4,151.8
		c24.9,58.9,37.6,121.5,37.6,185.9c0,64.5-12.6,127-37.6,185.9c-24,56.9-58.4,107.9-102.4,151.8c-43.8,43.8-95,78.3-151.8,102.4
		C633.9,972.9,571.3,985.5,506.9,985.5z M506.9,119.7c-214.1,0-388.3,174.1-388.3,388.3s174.1,388.3,388.3,388.3
		S895.1,722.1,895.1,508S721,119.7,506.9,119.7z"/>
</g>
<path class="st0" d="M286.9,710.6c0,0-80.3-200.5,78-331.1s374.1-87,374.1-87s42.2,173.4-65.4,323.8S353.3,725.2,353.3,725.2
	s11.9-68.4,73.7-137s173.6-137.4,164.3-138.3c-8.8-0.8-111.1,33-184.8,90.7S286.9,710.6,286.9,710.6z"/>
</svg>
