<?xml version="1.0" encoding="utf-8"?>
<!-- Generator: Adobe Illustrator 27.3.1, SVG Export Plug-In . SVG Version: 6.00 Build 0)  -->
<svg version="1.1" id="Layer_1" xmlns="http://www.w3.org/2000/svg" xmlns:xlink="http://www.w3.org/1999/xlink" x="0px" y="0px"
	 viewBox="0 0 1024 1024" style="enable-background:new 0 0 1024 1024;" xml:space="preserve">
<style type="text/css">
	.st0{fill:#D4AF37;}
</style>
<g>
	<g>
		<path class="st0" d="M350.6,859.7l-129.7-97.1l97.3-129.9h-156l-83.2,77.2l-68.8-42.4l57.4-93l0-330.6h80.9l38.6,139.7h163.4
			l-51.4-74.5l133.4-92l213.8,166.5h68c81.1,0,152.8,30.5,202,85.8l16.7,18.6H771.3v27.3h167.1l12.7,0.7
			c27.3,27.4,32.5,56.4,33.3,84.8h0.1v2.3c0.1,6.2,0.1,12.5,0,19c0,3.5,0,7,0,10.7l-317.4,0L350.6,859.7z M265.7,756.1L351,820
			l305.8-219.4h295.6c-0.7-21.6-4.1-42.1-19.6-59.5H747.3v-77.3h116.6c-40.5-31.4-92.3-48.4-149.6-48.4h-79l-204-158.9l-87.7,60.5
			l67.8,98.4H162.7l-38.6-139.7H99.6l0,307.7L54.3,657l20.9,12.9l74.5-69.2h232.6L265.7,756.1z"/>
	</g>
	<g>
		<path class="st0" d="M553,538.2h-69.1v-69.1H553V538.2z M497.9,524.2H539v-41.1h-41.1V524.2z"/>
	</g>
	<g>
		<path class="st0" d="M644.1,538.2H575v-69.1h69.1V538.2z M589,524.2h41.1v-41.1H589V524.2z"/>
	</g>
	<g>
		<path class="st0" d="M454.5,538.2h-69.1v-69.1h69.1V538.2z M399.5,524.2h41.1v-41.1h-41.1V524.2z"/>
	</g>
</g>
</svg>
